<?xml version="1.0" encoding="UTF-8" standalone="no"?>
<!-- Created with Inkscape (http://www.inkscape.org/) -->

<svg
   xmlns:dc="http://purl.org/dc/elements/1.1/"
   xmlns:cc="http://creativecommons.org/ns#"
   xmlns:rdf="http://www.w3.org/1999/02/22-rdf-syntax-ns#"
   xmlns:svg="http://www.w3.org/2000/svg"
   xmlns="http://www.w3.org/2000/svg"
   xmlns:sodipodi="http://sodipodi.sourceforge.net/DTD/sodipodi-0.dtd"
   xmlns:inkscape="http://www.inkscape.org/namespaces/inkscape"
   width="320"
   height="320"
   viewBox="0 0 84.666664 84.666669"
   version="1.1"
   id="svg8"
   inkscape:export-filename="C:\Users\broadcity\Downloads\luuuunch.png"
   inkscape:export-xdpi="96"
   inkscape:export-ydpi="96"
   inkscape:version="0.92.4 (5da689c313, 2019-01-14)"
   sodipodi:docname="luuuunch.svg">
  <defs
     id="defs2" />
  <sodipodi:namedview
     id="base"
     pagecolor="#ffffff"
     bordercolor="#666666"
     borderopacity="1.0"
     inkscape:pageopacity="0.0"
     inkscape:pageshadow="2"
     inkscape:zoom="0.98994949"
     inkscape:cx="78.477768"
     inkscape:cy="159.38887"
     inkscape:document-units="mm"
     inkscape:current-layer="layer3"
     showgrid="false"
     units="px"
     inkscape:window-width="3840"
     inkscape:window-height="2107"
     inkscape:window-x="1912"
     inkscape:window-y="1004"
     inkscape:window-maximized="1">
    <inkscape:grid
       type="xygrid"
       id="grid4518" />
  </sodipodi:namedview>
  <metadata
     id="metadata5">
    <rdf:RDF>
      <cc:Work
         rdf:about="">
        <dc:format>image/svg+xml</dc:format>
        <dc:type
           rdf:resource="http://purl.org/dc/dcmitype/StillImage" />
        <dc:title></dc:title>
      </cc:Work>
    </rdf:RDF>
  </metadata>
  <g
     inkscape:groupmode="layer"
     id="layer3"
     inkscape:label="レイヤー 3">
    <path
       style="display:inline;fill:#4a93ff;fill-opacity:1;stroke:none;stroke-width:3;stroke-linecap:butt;stroke-linejoin:miter;stroke-miterlimit:4;stroke-dasharray:none;stroke-opacity:1"
       d="M 244.65039 46.404297 C 241.38114 46.371928 226.36187 58.282663 209.78906 74.855469 L 185.04102 99.605469 C 178.37433 106.27215 188.17058 117.68683 181.50391 124.35352 C 175.39353 130.46389 168.26499 137.27662 160.63867 144.42188 C 164.5564 148.3396 168.37825 152.16146 172.24805 156.03125 C 173.33365 157.11685 174.45368 158.22006 175.59961 159.33594 C 182.73658 151.7188 189.54252 144.60006 195.64648 138.49609 C 202.31317 131.82942 213.72786 141.62566 220.39453 134.95898 C 229.23336 126.12015 233.13867 122.2168 245.14453 110.21094 C 262.82219 92.533278 275.1955 76.623237 273.42773 74.855469 C 271.65996 73.087701 255.7506 85.46229 238.19922 103.01367 C 224.91153 116.30136 215.09199 122.58613 213.32422 120.81836 C 211.55645 119.05059 217.84122 109.23104 231.12891 95.943359 C 248.68029 78.391974 261.05487 62.480655 259.28711 60.712891 C 257.51934 58.945122 241.60805 71.319686 224.05664 88.871094 C 210.76898 102.15875 200.94941 108.44355 199.18164 106.67578 C 197.41387 104.90802 203.69865 95.088466 216.98633 81.800781 C 234.53772 64.2494 246.9123 48.34003 245.14453 46.572266 C 245.03405 46.46178 244.86834 46.406455 244.65039 46.404297 z M 132.3418 170.45898 C 92.181721 206.91552 49.586715 244.33555 47.154297 251.63281 C 45.254011 257.33369 47.153921 265.77501 50.689453 269.31055 C 54.224986 272.84608 62.666314 274.74599 68.367188 272.8457 C 76.297848 270.20216 119.8057 220.12455 158.99023 177.28711 C 157.65063 175.90506 156.32417 174.55073 155.02734 173.25391 C 153.49749 171.72405 151.89583 171.20063 149.86719 171.05273 C 147.83854 170.90484 145.44343 171.2258 142.80273 171.45117 C 139.62056 171.72277 136.01492 171.76822 132.3418 170.45898 z "
       transform="scale(0.26458333)"
       id="path4522-1-5" />
    <path
       style="display:inline;fill:#4a93ff;fill-opacity:1;stroke:none;stroke-width:0.84029716;stroke-linecap:butt;stroke-linejoin:miter;stroke-miterlimit:4;stroke-dasharray:none;stroke-opacity:1"
       d="m 41.315614,45.542083 c 8.912695,8.912696 21.786593,25.74779 24.757488,26.738085 1.596808,0.532268 3.761311,0.199901 4.951502,-0.990293 1.190194,-1.190193 1.522561,-3.354694 0.990294,-4.951505 C 71.024604,63.367475 54.189508,50.49358 45.27681,41.580884 35.703919,32.007994 25.470824,21.774895 16.558126,12.8622 c -0.933665,-0.933665 -2.970904,-0.990305 -3.961202,-5e-6 -1.980608,1.980591 11.883599,21.786595 20.796297,30.699291 2.970899,2.970901 5.997594,0.0558 7.922393,1.980597 z"
       id="path4520-9-6"
       inkscape:connector-curvature="0"
       sodipodi:nodetypes="sssssssss" />
  </g>
</svg>
